<mxGraphModel arrows="1" connect="1" dx="1024" dy="592" fold="1" grid="1" gridSize="10" guides="1" math="0" page="1" pageHeight="1169" pageScale="1" pageWidth="827" shadow="0" tooltips="1"><root><mxCell id="WIyWlLk6GJQsqaUBKTNV-0"/><mxCell id="WIyWlLk6GJQsqaUBKTNV-1" parent="WIyWlLk6GJQsqaUBKTNV-0"/><mxCell id="WIyWlLk6GJQsqaUBKTNV-2" value="01_p1_ConfluenceAPI" style="rounded=1;whiteSpace=wrap;html=1;fontSize=12;glass=0;strokeWidth=1;shadow=0;" parent="WIyWlLk6GJQsqaUBKTNV-1" vertex="1"><mxGeometry x="1250" y="100" width="120" height="40" as="geometry"/></mxCell><mxCell id="WIyWlLk6GJQsqaUBKTNV-21" value="02_p1_CreateProjectFolderPage" style="rounded=1;whiteSpace=wrap;html=1;fontSize=12;glass=0;strokeWidth=1;shadow=0;" parent="WIyWlLk6GJQsqaUBKTNV-1" vertex="1"><mxGeometry x="625" y="200" width="120" height="40" as="geometry"/></mxCell><mxCell id="8sIUwhSZAv_JCLybafT7-2" style="edgeStyle=orthogonalEdgeStyle;rounded=0;orthogonalLoop=1;jettySize=auto;html=1;entryX=0.5;entryY=0;entryDx=0;entryDy=0;" edge="1" parent="WIyWlLk6GJQsqaUBKTNV-1" source="WIyWlLk6GJQsqaUBKTNV-2" target="WIyWlLk6GJQsqaUBKTNV-21"><mxGeometry relative="1" as="geometry"/></mxCell><mxCell id="WIyWlLk6GJQsqaUBKTNV-22" value="02_p1_CreateTaskPageAccountPage" style="rounded=1;whiteSpace=wrap;html=1;fontSize=12;glass=0;strokeWidth=1;shadow=0;" parent="WIyWlLk6GJQsqaUBKTNV-1" vertex="1"><mxGeometry x="1875" y="200" width="120" height="40" as="geometry"/></mxCell><mxCell id="8sIUwhSZAv_JCLybafT7-3" style="edgeStyle=orthogonalEdgeStyle;rounded=0;orthogonalLoop=1;jettySize=auto;html=1;entryX=0.5;entryY=0;entryDx=0;entryDy=0;" edge="1" parent="WIyWlLk6GJQsqaUBKTNV-1" source="WIyWlLk6GJQsqaUBKTNV-2" target="WIyWlLk6GJQsqaUBKTNV-22"><mxGeometry relative="1" as="geometry"/></mxCell><mxCell id="WIyWlLk6GJQsqaUBKTNV-221" value="03_p1_CreatePipelinePage" style="rounded=1;whiteSpace=wrap;html=1;fontSize=12;glass=0;strokeWidth=1;shadow=0;" parent="WIyWlLk6GJQsqaUBKTNV-1" vertex="1"><mxGeometry x="1458.333333333333333333333333333333" y="300" width="120" height="40" as="geometry"/></mxCell><mxCell id="8sIUwhSZAv_JCLybafT7-4" style="edgeStyle=orthogonalEdgeStyle;rounded=0;orthogonalLoop=1;jettySize=auto;html=1;entryX=0.5;entryY=0;entryDx=0;entryDy=0;" edge="1" parent="WIyWlLk6GJQsqaUBKTNV-1" source="WIyWlLk6GJQsqaUBKTNV-22" target="WIyWlLk6GJQsqaUBKTNV-221"><mxGeometry relative="1" as="geometry"/></mxCell><mxCell id="WIyWlLk6GJQsqaUBKTNV-2211" value="04_p1_Parallel_PipelineInfo" style="rounded=1;whiteSpace=wrap;html=1;fontSize=12;glass=0;strokeWidth=1;shadow=0;" parent="WIyWlLk6GJQsqaUBKTNV-1" vertex="1"><mxGeometry x="1458.333333333333333333333333333333" y="400" width="120" height="40" as="geometry"/></mxCell><mxCell id="8sIUwhSZAv_JCLybafT7-5" style="edgeStyle=orthogonalEdgeStyle;rounded=0;orthogonalLoop=1;jettySize=auto;html=1;entryX=0.5;entryY=0;entryDx=0;entryDy=0;" edge="1" parent="WIyWlLk6GJQsqaUBKTNV-1" source="WIyWlLk6GJQsqaUBKTNV-221" target="WIyWlLk6GJQsqaUBKTNV-2211"><mxGeometry relative="1" as="geometry"/></mxCell><mxCell id="WIyWlLk6GJQsqaUBKTNV-222" value="03_p1_CreateAccountPages" style="rounded=1;whiteSpace=wrap;html=1;fontSize=12;glass=0;strokeWidth=1;shadow=0;" parent="WIyWlLk6GJQsqaUBKTNV-1" vertex="1"><mxGeometry x="1875.000000000000000000000000000000" y="300" width="120" height="40" as="geometry"/></mxCell><mxCell id="8sIUwhSZAv_JCLybafT7-6" style="edgeStyle=orthogonalEdgeStyle;rounded=0;orthogonalLoop=1;jettySize=auto;html=1;entryX=0.5;entryY=0;entryDx=0;entryDy=0;" edge="1" parent="WIyWlLk6GJQsqaUBKTNV-1" source="WIyWlLk6GJQsqaUBKTNV-22" target="WIyWlLk6GJQsqaUBKTNV-222"><mxGeometry relative="1" as="geometry"/></mxCell><mxCell id="WIyWlLk6GJQsqaUBKTNV-2221" value="04_p1_Parallel_AccountInfo" style="rounded=1;whiteSpace=wrap;html=1;fontSize=12;glass=0;strokeWidth=1;shadow=0;" parent="WIyWlLk6GJQsqaUBKTNV-1" vertex="1"><mxGeometry x="1875.000000000000000000000000000000" y="400" width="120" height="40" as="geometry"/></mxCell><mxCell id="8sIUwhSZAv_JCLybafT7-7" style="edgeStyle=orthogonalEdgeStyle;rounded=0;orthogonalLoop=1;jettySize=auto;html=1;entryX=0.5;entryY=0;entryDx=0;entryDy=0;" edge="1" parent="WIyWlLk6GJQsqaUBKTNV-1" source="WIyWlLk6GJQsqaUBKTNV-222" target="WIyWlLk6GJQsqaUBKTNV-2221"><mxGeometry relative="1" as="geometry"/></mxCell><mxCell id="WIyWlLk6GJQsqaUBKTNV-223" value="03_p1_CreateTaskPages" style="rounded=1;whiteSpace=wrap;html=1;fontSize=12;glass=0;strokeWidth=1;shadow=0;" parent="WIyWlLk6GJQsqaUBKTNV-1" vertex="1"><mxGeometry x="2291.666666666666666666666666666667" y="300" width="120" height="40" as="geometry"/></mxCell><mxCell id="8sIUwhSZAv_JCLybafT7-8" style="edgeStyle=orthogonalEdgeStyle;rounded=0;orthogonalLoop=1;jettySize=auto;html=1;entryX=0.5;entryY=0;entryDx=0;entryDy=0;" edge="1" parent="WIyWlLk6GJQsqaUBKTNV-1" source="WIyWlLk6GJQsqaUBKTNV-22" target="WIyWlLk6GJQsqaUBKTNV-223"><mxGeometry relative="1" as="geometry"/></mxCell><mxCell id="WIyWlLk6GJQsqaUBKTNV-2231" value="04_p1_Parallel_TaskInfo" style="rounded=1;whiteSpace=wrap;html=1;fontSize=12;glass=0;strokeWidth=1;shadow=0;" parent="WIyWlLk6GJQsqaUBKTNV-1" vertex="1"><mxGeometry x="2291.666666666666666666666666666667" y="400" width="120" height="40" as="geometry"/></mxCell><mxCell id="8sIUwhSZAv_JCLybafT7-9" style="edgeStyle=orthogonalEdgeStyle;rounded=0;orthogonalLoop=1;jettySize=auto;html=1;entryX=0.5;entryY=0;entryDx=0;entryDy=0;" edge="1" parent="WIyWlLk6GJQsqaUBKTNV-1" source="WIyWlLk6GJQsqaUBKTNV-223" target="WIyWlLk6GJQsqaUBKTNV-2231"><mxGeometry relative="1" as="geometry"/></mxCell></root></mxGraphModel>